<?xml version="1.0" encoding="utf-8" standalone="no"?>
<!DOCTYPE svg PUBLIC "-//W3C//DTD SVG 1.1//EN"
  "http://www.w3.org/Graphics/SVG/1.1/DTD/svg11.dtd">
<!-- Created with matplotlib (https://matplotlib.org/) -->
<svg height="345.6pt" version="1.1" viewBox="0 0 460.8 345.6" width="460.8pt" xmlns="http://www.w3.org/2000/svg" xmlns:xlink="http://www.w3.org/1999/xlink">
 <metadata>
  <rdf:RDF xmlns:cc="http://creativecommons.org/ns#" xmlns:dc="http://purl.org/dc/elements/1.1/" xmlns:rdf="http://www.w3.org/1999/02/22-rdf-syntax-ns#">
   <cc:Work>
    <dc:type rdf:resource="http://purl.org/dc/dcmitype/StillImage"/>
    <dc:date>2021-04-01T15:53:06.353011</dc:date>
    <dc:format>image/svg+xml</dc:format>
    <dc:creator>
     <cc:Agent>
      <dc:title>Matplotlib v3.3.2, https://matplotlib.org/</dc:title>
     </cc:Agent>
    </dc:creator>
   </cc:Work>
  </rdf:RDF>
 </metadata>
 <defs>
  <style type="text/css">*{stroke-linecap:butt;stroke-linejoin:round;}</style>
 </defs>
 <g id="figure_1">
  <g id="patch_1">
   <path d="M 0 345.6 
L 460.8 345.6 
L 460.8 0 
L 0 0 
z
" style="fill:#ffffff;"/>
  </g>
  <g id="axes_1">
   <g id="patch_2">
    <path d="M 57.6 307.584 
L 414.72 307.584 
L 414.72 41.472 
L 57.6 41.472 
z
" style="fill:#ffffff;"/>
   </g>
   <g id="PathCollection_1">
    <defs>
     <path d="M 0 3 
C 0.795609 3 1.55874 2.683901 2.12132 2.12132 
C 2.683901 1.55874 3 0.795609 3 0 
C 3 -0.795609 2.683901 -1.55874 2.12132 -2.12132 
C 1.55874 -2.683901 0.795609 -3 0 -3 
C -0.795609 -3 -1.55874 -2.683901 -2.12132 -2.12132 
C -2.683901 -1.55874 -3 -0.795609 -3 0 
C -3 0.795609 -2.683901 1.55874 -2.12132 2.12132 
C -1.55874 2.683901 -0.795609 3 0 3 
z
" id="m70a24669e8" style="stroke:#1f77b4;"/>
    </defs>
    <g clip-path="url(#p860cb86da8)">
     <use style="fill:#1f77b4;stroke:#1f77b4;" x="73.832727" xlink:href="#m70a24669e8" y="252.932283"/>
     <use style="fill:#1f77b4;stroke:#1f77b4;" x="73.850073" xlink:href="#m70a24669e8" y="249.694348"/>
     <use style="fill:#1f77b4;stroke:#1f77b4;" x="73.867419" xlink:href="#m70a24669e8" y="283.923946"/>
     <use style="fill:#1f77b4;stroke:#1f77b4;" x="73.884765" xlink:href="#m70a24669e8" y="290.399816"/>
     <use style="fill:#1f77b4;stroke:#1f77b4;" x="73.902111" xlink:href="#m70a24669e8" y="285.311633"/>
     <use style="fill:#1f77b4;stroke:#1f77b4;" x="73.919457" xlink:href="#m70a24669e8" y="275.135266"/>
     <use style="fill:#1f77b4;stroke:#1f77b4;" x="73.936803" xlink:href="#m70a24669e8" y="286.699319"/>
     <use style="fill:#1f77b4;stroke:#1f77b4;" x="73.954149" xlink:href="#m70a24669e8" y="278.373201"/>
     <use style="fill:#1f77b4;stroke:#1f77b4;" x="73.971496" xlink:href="#m70a24669e8" y="288.549568"/>
     <use style="fill:#1f77b4;stroke:#1f77b4;" x="73.988842" xlink:href="#m70a24669e8" y="275.597828"/>
     <use style="fill:#1f77b4;stroke:#1f77b4;" x="74.006188" xlink:href="#m70a24669e8" y="289.937254"/>
     <use style="fill:#1f77b4;stroke:#1f77b4;" x="74.023534" xlink:href="#m70a24669e8" y="280.686011"/>
     <use style="fill:#1f77b4;stroke:#1f77b4;" x="74.04088" xlink:href="#m70a24669e8" y="274.210141"/>
     <use style="fill:#1f77b4;stroke:#1f77b4;" x="74.058226" xlink:href="#m70a24669e8" y="275.597828"/>
     <use style="fill:#1f77b4;stroke:#1f77b4;" x="74.075572" xlink:href="#m70a24669e8" y="282.998822"/>
     <use style="fill:#1f77b4;stroke:#1f77b4;" x="74.092918" xlink:href="#m70a24669e8" y="282.073698"/>
     <use style="fill:#1f77b4;stroke:#1f77b4;" x="74.110264" xlink:href="#m70a24669e8" y="279.760887"/>
     <use style="fill:#1f77b4;stroke:#1f77b4;" x="74.12761" xlink:href="#m70a24669e8" y="278.373201"/>
     <use style="fill:#1f77b4;stroke:#1f77b4;" x="74.144956" xlink:href="#m70a24669e8" y="290.862379"/>
     <use style="fill:#1f77b4;stroke:#1f77b4;" x="74.162302" xlink:href="#m70a24669e8" y="275.597828"/>
     <use style="fill:#1f77b4;stroke:#1f77b4;" x="74.179648" xlink:href="#m70a24669e8" y="293.175189"/>
     <use style="fill:#1f77b4;stroke:#1f77b4;" x="74.196994" xlink:href="#m70a24669e8" y="279.298325"/>
     <use style="fill:#1f77b4;stroke:#1f77b4;" x="74.21434" xlink:href="#m70a24669e8" y="292.250065"/>
     <use style="fill:#1f77b4;stroke:#1f77b4;" x="74.231686" xlink:href="#m70a24669e8" y="270.047082"/>
     <use style="fill:#1f77b4;stroke:#1f77b4;" x="74.249032" xlink:href="#m70a24669e8" y="289.937254"/>
     <use style="fill:#1f77b4;stroke:#1f77b4;" x="74.266378" xlink:href="#m70a24669e8" y="285.311633"/>
     <use style="fill:#1f77b4;stroke:#1f77b4;" x="74.283724" xlink:href="#m70a24669e8" y="269.121958"/>
     <use style="fill:#1f77b4;stroke:#1f77b4;" x="74.30107" xlink:href="#m70a24669e8" y="282.073698"/>
     <use style="fill:#1f77b4;stroke:#1f77b4;" x="74.318416" xlink:href="#m70a24669e8" y="291.787503"/>
     <use style="fill:#1f77b4;stroke:#1f77b4;" x="74.335762" xlink:href="#m70a24669e8" y="251.544597"/>
     <use style="fill:#1f77b4;stroke:#1f77b4;" x="74.353108" xlink:href="#m70a24669e8" y="286.699319"/>
     <use style="fill:#1f77b4;stroke:#1f77b4;" x="74.370454" xlink:href="#m70a24669e8" y="284.849071"/>
     <use style="fill:#1f77b4;stroke:#1f77b4;" x="74.3878" xlink:href="#m70a24669e8" y="292.250065"/>
     <use style="fill:#1f77b4;stroke:#1f77b4;" x="74.405146" xlink:href="#m70a24669e8" y="292.250065"/>
     <use style="fill:#1f77b4;stroke:#1f77b4;" x="74.422492" xlink:href="#m70a24669e8" y="290.862379"/>
     <use style="fill:#1f77b4;stroke:#1f77b4;" x="74.439838" xlink:href="#m70a24669e8" y="285.774195"/>
     <use style="fill:#1f77b4;stroke:#1f77b4;" x="74.457184" xlink:href="#m70a24669e8" y="276.522952"/>
     <use style="fill:#1f77b4;stroke:#1f77b4;" x="74.47453" xlink:href="#m70a24669e8" y="283.923946"/>
     <use style="fill:#1f77b4;stroke:#1f77b4;" x="74.491877" xlink:href="#m70a24669e8" y="279.298325"/>
     <use style="fill:#1f77b4;stroke:#1f77b4;" x="74.509223" xlink:href="#m70a24669e8" y="288.087006"/>
     <use style="fill:#1f77b4;stroke:#1f77b4;" x="74.526569" xlink:href="#m70a24669e8" y="289.474692"/>
     <use style="fill:#1f77b4;stroke:#1f77b4;" x="74.543915" xlink:href="#m70a24669e8" y="228.879052"/>
     <use style="fill:#1f77b4;stroke:#1f77b4;" x="74.561261" xlink:href="#m70a24669e8" y="268.196834"/>
     <use style="fill:#1f77b4;stroke:#1f77b4;" x="74.578607" xlink:href="#m70a24669e8" y="252.469721"/>
     <use style="fill:#1f77b4;stroke:#1f77b4;" x="74.595953" xlink:href="#m70a24669e8" y="239.517981"/>
     <use style="fill:#1f77b4;stroke:#1f77b4;" x="74.613299" xlink:href="#m70a24669e8" y="276.522952"/>
     <use style="fill:#1f77b4;stroke:#1f77b4;" x="74.630645" xlink:href="#m70a24669e8" y="267.734272"/>
     <use style="fill:#1f77b4;stroke:#1f77b4;" x="74.647991" xlink:href="#m70a24669e8" y="240.443105"/>
     <use style="fill:#1f77b4;stroke:#1f77b4;" x="74.665337" xlink:href="#m70a24669e8" y="245.531289"/>
     <use style="fill:#1f77b4;stroke:#1f77b4;" x="74.682683" xlink:href="#m70a24669e8" y="244.606164"/>
     <use style="fill:#1f77b4;stroke:#1f77b4;" x="74.700029" xlink:href="#m70a24669e8" y="275.597828"/>
     <use style="fill:#1f77b4;stroke:#1f77b4;" x="74.717375" xlink:href="#m70a24669e8" y="216.389874"/>
     <use style="fill:#1f77b4;stroke:#1f77b4;" x="74.734721" xlink:href="#m70a24669e8" y="252.469721"/>
     <use style="fill:#1f77b4;stroke:#1f77b4;" x="74.752067" xlink:href="#m70a24669e8" y="239.517981"/>
     <use style="fill:#1f77b4;stroke:#1f77b4;" x="74.769413" xlink:href="#m70a24669e8" y="246.918975"/>
     <use style="fill:#1f77b4;stroke:#1f77b4;" x="74.786759" xlink:href="#m70a24669e8" y="199.737637"/>
     <use style="fill:#1f77b4;stroke:#1f77b4;" x="74.804105" xlink:href="#m70a24669e8" y="154.406547"/>
     <use style="fill:#1f77b4;stroke:#1f77b4;" x="74.821451" xlink:href="#m70a24669e8" y="288.087006"/>
     <use style="fill:#1f77b4;stroke:#1f77b4;" x="74.838797" xlink:href="#m70a24669e8" y="248.769224"/>
     <use style="fill:#1f77b4;stroke:#1f77b4;" x="74.856143" xlink:href="#m70a24669e8" y="248.769224"/>
     <use style="fill:#1f77b4;stroke:#1f77b4;" x="74.873489" xlink:href="#m70a24669e8" y="132.203564"/>
     <use style="fill:#1f77b4;stroke:#1f77b4;" x="74.890835" xlink:href="#m70a24669e8" y="202.51301"/>
     <use style="fill:#1f77b4;stroke:#1f77b4;" x="74.908181" xlink:href="#m70a24669e8" y="261.258402"/>
     <use style="fill:#1f77b4;stroke:#1f77b4;" x="74.925527" xlink:href="#m70a24669e8" y="252.469721"/>
     <use style="fill:#1f77b4;stroke:#1f77b4;" x="74.942873" xlink:href="#m70a24669e8" y="195.112015"/>
     <use style="fill:#1f77b4;stroke:#1f77b4;" x="74.960219" xlink:href="#m70a24669e8" y="150.70605"/>
     <use style="fill:#1f77b4;stroke:#1f77b4;" x="74.977565" xlink:href="#m70a24669e8" y="185.860772"/>
     <use style="fill:#1f77b4;stroke:#1f77b4;" x="74.994911" xlink:href="#m70a24669e8" y="170.596222"/>
     <use style="fill:#1f77b4;stroke:#1f77b4;" x="75.012257" xlink:href="#m70a24669e8" y="268.659396"/>
     <use style="fill:#1f77b4;stroke:#1f77b4;" x="75.029604" xlink:href="#m70a24669e8" y="234.429797"/>
     <use style="fill:#1f77b4;stroke:#1f77b4;" x="75.04695" xlink:href="#m70a24669e8" y="187.248459"/>
     <use style="fill:#1f77b4;stroke:#1f77b4;" x="75.064296" xlink:href="#m70a24669e8" y="193.261767"/>
     <use style="fill:#1f77b4;stroke:#1f77b4;" x="75.081642" xlink:href="#m70a24669e8" y="166.895725"/>
     <use style="fill:#1f77b4;stroke:#1f77b4;" x="75.098988" xlink:href="#m70a24669e8" y="259.870715"/>
     <use style="fill:#1f77b4;stroke:#1f77b4;" x="75.116334" xlink:href="#m70a24669e8" y="227.491365"/>
     <use style="fill:#1f77b4;stroke:#1f77b4;" x="75.13368" xlink:href="#m70a24669e8" y="255.245094"/>
     <use style="fill:#1f77b4;stroke:#1f77b4;" x="75.151026" xlink:href="#m70a24669e8" y="191.87408"/>
     <use style="fill:#1f77b4;stroke:#1f77b4;" x="75.168372" xlink:href="#m70a24669e8" y="202.975572"/>
     <use style="fill:#1f77b4;stroke:#1f77b4;" x="75.185718" xlink:href="#m70a24669e8" y="284.849071"/>
     <use style="fill:#1f77b4;stroke:#1f77b4;" x="75.203064" xlink:href="#m70a24669e8" y="265.884023"/>
     <use style="fill:#1f77b4;stroke:#1f77b4;" x="75.22041" xlink:href="#m70a24669e8" y="214.539625"/>
     <use style="fill:#1f77b4;stroke:#1f77b4;" x="75.237756" xlink:href="#m70a24669e8" y="269.58452"/>
     <use style="fill:#1f77b4;stroke:#1f77b4;" x="75.255102" xlink:href="#m70a24669e8" y="217.314998"/>
     <use style="fill:#1f77b4;stroke:#1f77b4;" x="75.272448" xlink:href="#m70a24669e8" y="233.042111"/>
     <use style="fill:#1f77b4;stroke:#1f77b4;" x="75.289794" xlink:href="#m70a24669e8" y="217.314998"/>
     <use style="fill:#1f77b4;stroke:#1f77b4;" x="75.30714" xlink:href="#m70a24669e8" y="263.10865"/>
     <use style="fill:#1f77b4;stroke:#1f77b4;" x="75.324486" xlink:href="#m70a24669e8" y="243.68104"/>
     <use style="fill:#1f77b4;stroke:#1f77b4;" x="75.341832" xlink:href="#m70a24669e8" y="208.526317"/>
     <use style="fill:#1f77b4;stroke:#1f77b4;" x="75.359178" xlink:href="#m70a24669e8" y="222.865744"/>
     <use style="fill:#1f77b4;stroke:#1f77b4;" x="75.376524" xlink:href="#m70a24669e8" y="213.614501"/>
     <use style="fill:#1f77b4;stroke:#1f77b4;" x="75.39387" xlink:href="#m70a24669e8" y="224.25343"/>
     <use style="fill:#1f77b4;stroke:#1f77b4;" x="75.411216" xlink:href="#m70a24669e8" y="267.734272"/>
     <use style="fill:#1f77b4;stroke:#1f77b4;" x="75.428562" xlink:href="#m70a24669e8" y="241.368229"/>
     <use style="fill:#1f77b4;stroke:#1f77b4;" x="75.445908" xlink:href="#m70a24669e8" y="247.844099"/>
     <use style="fill:#1f77b4;stroke:#1f77b4;" x="75.463254" xlink:href="#m70a24669e8" y="247.844099"/>
     <use style="fill:#1f77b4;stroke:#1f77b4;" x="75.4806" xlink:href="#m70a24669e8" y="282.073698"/>
     <use style="fill:#1f77b4;stroke:#1f77b4;" x="75.497946" xlink:href="#m70a24669e8" y="266.346585"/>
     <use style="fill:#1f77b4;stroke:#1f77b4;" x="75.515292" xlink:href="#m70a24669e8" y="178.459778"/>
     <use style="fill:#1f77b4;stroke:#1f77b4;" x="75.532638" xlink:href="#m70a24669e8" y="259.870715"/>
     <use style="fill:#1f77b4;stroke:#1f77b4;" x="75.549984" xlink:href="#m70a24669e8" y="275.597828"/>
     <use style="fill:#1f77b4;stroke:#1f77b4;" x="75.567331" xlink:href="#m70a24669e8" y="226.566241"/>
     <use style="fill:#1f77b4;stroke:#1f77b4;" x="75.584677" xlink:href="#m70a24669e8" y="239.980543"/>
     <use style="fill:#1f77b4;stroke:#1f77b4;" x="75.602023" xlink:href="#m70a24669e8" y="149.318363"/>
     <use style="fill:#1f77b4;stroke:#1f77b4;" x="75.619369" xlink:href="#m70a24669e8" y="111.388268"/>
     <use style="fill:#1f77b4;stroke:#1f77b4;" x="75.636715" xlink:href="#m70a24669e8" y="285.311633"/>
     <use style="fill:#1f77b4;stroke:#1f77b4;" x="75.654061" xlink:href="#m70a24669e8" y="246.456413"/>
     <use style="fill:#1f77b4;stroke:#1f77b4;" x="75.671407" xlink:href="#m70a24669e8" y="128.503067"/>
     <use style="fill:#1f77b4;stroke:#1f77b4;" x="75.688753" xlink:href="#m70a24669e8" y="289.01213"/>
     <use style="fill:#1f77b4;stroke:#1f77b4;" x="75.706099" xlink:href="#m70a24669e8" y="53.568"/>
     <use style="fill:#1f77b4;stroke:#1f77b4;" x="75.723445" xlink:href="#m70a24669e8" y="62.819243"/>
     <use style="fill:#1f77b4;stroke:#1f77b4;" x="75.740791" xlink:href="#m70a24669e8" y="280.686011"/>
     <use style="fill:#1f77b4;stroke:#1f77b4;" x="75.758137" xlink:href="#m70a24669e8" y="109.075457"/>
     <use style="fill:#1f77b4;stroke:#1f77b4;" x="75.775483" xlink:href="#m70a24669e8" y="148.393239"/>
     <use style="fill:#1f77b4;stroke:#1f77b4;" x="75.792829" xlink:href="#m70a24669e8" y="262.183526"/>
     <use style="fill:#1f77b4;stroke:#1f77b4;" x="75.810175" xlink:href="#m70a24669e8" y="248.769224"/>
     <use style="fill:#1f77b4;stroke:#1f77b4;" x="75.827521" xlink:href="#m70a24669e8" y="234.429797"/>
     <use style="fill:#1f77b4;stroke:#1f77b4;" x="75.844867" xlink:href="#m70a24669e8" y="139.141996"/>
     <use style="fill:#1f77b4;stroke:#1f77b4;" x="75.862213" xlink:href="#m70a24669e8" y="271.897331"/>
     <use style="fill:#1f77b4;stroke:#1f77b4;" x="75.879559" xlink:href="#m70a24669e8" y="258.483029"/>
     <use style="fill:#1f77b4;stroke:#1f77b4;" x="75.896905" xlink:href="#m70a24669e8" y="133.59125"/>
     <use style="fill:#1f77b4;stroke:#1f77b4;" x="75.914251" xlink:href="#m70a24669e8" y="168.283411"/>
     <use style="fill:#1f77b4;stroke:#1f77b4;" x="75.931597" xlink:href="#m70a24669e8" y="277.448076"/>
     <use style="fill:#1f77b4;stroke:#1f77b4;" x="75.948943" xlink:href="#m70a24669e8" y="281.611136"/>
     <use style="fill:#1f77b4;stroke:#1f77b4;" x="75.966289" xlink:href="#m70a24669e8" y="293.175189"/>
     <use style="fill:#1f77b4;stroke:#1f77b4;" x="75.983635" xlink:href="#m70a24669e8" y="278.835763"/>
     <use style="fill:#1f77b4;stroke:#1f77b4;" x="76.000981" xlink:href="#m70a24669e8" y="199.275075"/>
     <use style="fill:#1f77b4;stroke:#1f77b4;" x="76.018327" xlink:href="#m70a24669e8" y="260.795839"/>
     <use style="fill:#1f77b4;stroke:#1f77b4;" x="76.035673" xlink:href="#m70a24669e8" y="291.324941"/>
     <use style="fill:#1f77b4;stroke:#1f77b4;" x="76.053019" xlink:href="#m70a24669e8" y="292.712627"/>
     <use style="fill:#1f77b4;stroke:#1f77b4;" x="76.070365" xlink:href="#m70a24669e8" y="190.023832"/>
     <use style="fill:#1f77b4;stroke:#1f77b4;" x="76.087711" xlink:href="#m70a24669e8" y="293.175189"/>
     <use style="fill:#1f77b4;stroke:#1f77b4;" x="76.105058" xlink:href="#m70a24669e8" y="294.100314"/>
     <use style="fill:#1f77b4;stroke:#1f77b4;" x="76.122404" xlink:href="#m70a24669e8" y="295.025438"/>
     <use style="fill:#1f77b4;stroke:#1f77b4;" x="76.13975" xlink:href="#m70a24669e8" y="288.087006"/>
     <use style="fill:#1f77b4;stroke:#1f77b4;" x="76.157096" xlink:href="#m70a24669e8" y="217.77756"/>
     <use style="fill:#1f77b4;stroke:#1f77b4;" x="76.174442" xlink:href="#m70a24669e8" y="280.686011"/>
     <use style="fill:#1f77b4;stroke:#1f77b4;" x="76.191788" xlink:href="#m70a24669e8" y="210.839128"/>
     <use style="fill:#1f77b4;stroke:#1f77b4;" x="76.209134" xlink:href="#m70a24669e8" y="281.611136"/>
     <use style="fill:#1f77b4;stroke:#1f77b4;" x="76.22648" xlink:href="#m70a24669e8" y="277.448076"/>
     <use style="fill:#1f77b4;stroke:#1f77b4;" x="76.243826" xlink:href="#m70a24669e8" y="240.443105"/>
     <use style="fill:#1f77b4;stroke:#1f77b4;" x="76.261172" xlink:href="#m70a24669e8" y="249.694348"/>
     <use style="fill:#1f77b4;stroke:#1f77b4;" x="76.278518" xlink:href="#m70a24669e8" y="259.408153"/>
     <use style="fill:#1f77b4;stroke:#1f77b4;" x="76.295864" xlink:href="#m70a24669e8" y="284.386509"/>
     <use style="fill:#1f77b4;stroke:#1f77b4;" x="76.31321" xlink:href="#m70a24669e8" y="267.271709"/>
     <use style="fill:#1f77b4;stroke:#1f77b4;" x="76.330556" xlink:href="#m70a24669e8" y="289.01213"/>
     <use style="fill:#1f77b4;stroke:#1f77b4;" x="76.347902" xlink:href="#m70a24669e8" y="269.58452"/>
     <use style="fill:#1f77b4;stroke:#1f77b4;" x="76.365248" xlink:href="#m70a24669e8" y="295.488"/>
     <use style="fill:#1f77b4;stroke:#1f77b4;" x="76.382594" xlink:href="#m70a24669e8" y="291.324941"/>
     <use style="fill:#1f77b4;stroke:#1f77b4;" x="76.39994" xlink:href="#m70a24669e8" y="234.892359"/>
     <use style="fill:#1f77b4;stroke:#1f77b4;" x="76.417286" xlink:href="#m70a24669e8" y="232.116987"/>
     <use style="fill:#1f77b4;stroke:#1f77b4;" x="76.434632" xlink:href="#m70a24669e8" y="291.324941"/>
     <use style="fill:#1f77b4;stroke:#1f77b4;" x="76.451978" xlink:href="#m70a24669e8" y="232.579549"/>
     <use style="fill:#1f77b4;stroke:#1f77b4;" x="76.469324" xlink:href="#m70a24669e8" y="293.175189"/>
     <use style="fill:#1f77b4;stroke:#1f77b4;" x="76.48667" xlink:href="#m70a24669e8" y="227.953927"/>
     <use style="fill:#1f77b4;stroke:#1f77b4;" x="76.504016" xlink:href="#m70a24669e8" y="227.028803"/>
     <use style="fill:#1f77b4;stroke:#1f77b4;" x="76.521362" xlink:href="#m70a24669e8" y="289.01213"/>
     <use style="fill:#1f77b4;stroke:#1f77b4;" x="76.538708" xlink:href="#m70a24669e8" y="208.98888"/>
     <use style="fill:#1f77b4;stroke:#1f77b4;" x="76.556054" xlink:href="#m70a24669e8" y="209.914004"/>
     <use style="fill:#1f77b4;stroke:#1f77b4;" x="76.5734" xlink:href="#m70a24669e8" y="211.764252"/>
     <use style="fill:#1f77b4;stroke:#1f77b4;" x="76.590746" xlink:href="#m70a24669e8" y="293.175189"/>
     <use style="fill:#1f77b4;stroke:#1f77b4;" x="76.608092" xlink:href="#m70a24669e8" y="208.526317"/>
     <use style="fill:#1f77b4;stroke:#1f77b4;" x="76.625438" xlink:href="#m70a24669e8" y="211.764252"/>
     <use style="fill:#1f77b4;stroke:#1f77b4;" x="76.642785" xlink:href="#m70a24669e8" y="213.614501"/>
     <use style="fill:#1f77b4;stroke:#1f77b4;" x="76.660131" xlink:href="#m70a24669e8" y="279.760887"/>
     <use style="fill:#1f77b4;stroke:#1f77b4;" x="76.677477" xlink:href="#m70a24669e8" y="211.30169"/>
     <use style="fill:#1f77b4;stroke:#1f77b4;" x="76.694823" xlink:href="#m70a24669e8" y="226.103679"/>
     <use style="fill:#1f77b4;stroke:#1f77b4;" x="76.712169" xlink:href="#m70a24669e8" y="217.314998"/>
     <use style="fill:#1f77b4;stroke:#1f77b4;" x="76.729515" xlink:href="#m70a24669e8" y="231.191862"/>
     <use style="fill:#1f77b4;stroke:#1f77b4;" x="76.746861" xlink:href="#m70a24669e8" y="264.958899"/>
     <use style="fill:#1f77b4;stroke:#1f77b4;" x="76.764207" xlink:href="#m70a24669e8" y="209.914004"/>
     <use style="fill:#1f77b4;stroke:#1f77b4;" x="76.781553" xlink:href="#m70a24669e8" y="289.01213"/>
     <use style="fill:#1f77b4;stroke:#1f77b4;" x="76.798899" xlink:href="#m70a24669e8" y="209.451442"/>
     <use style="fill:#1f77b4;stroke:#1f77b4;" x="76.816245" xlink:href="#m70a24669e8" y="286.236757"/>
     <use style="fill:#1f77b4;stroke:#1f77b4;" x="76.833591" xlink:href="#m70a24669e8" y="215.002187"/>
     <use style="fill:#1f77b4;stroke:#1f77b4;" x="76.850937" xlink:href="#m70a24669e8" y="195.574577"/>
     <use style="fill:#1f77b4;stroke:#1f77b4;" x="76.868283" xlink:href="#m70a24669e8" y="170.596222"/>
     <use style="fill:#1f77b4;stroke:#1f77b4;" x="76.885629" xlink:href="#m70a24669e8" y="237.20517"/>
     <use style="fill:#1f77b4;stroke:#1f77b4;" x="76.902975" xlink:href="#m70a24669e8" y="148.855801"/>
     <use style="fill:#1f77b4;stroke:#1f77b4;" x="76.920321" xlink:href="#m70a24669e8" y="208.063755"/>
     <use style="fill:#1f77b4;stroke:#1f77b4;" x="76.937667" xlink:href="#m70a24669e8" y="271.897331"/>
     <use style="fill:#1f77b4;stroke:#1f77b4;" x="76.955013" xlink:href="#m70a24669e8" y="278.835763"/>
     <use style="fill:#1f77b4;stroke:#1f77b4;" x="76.972359" xlink:href="#m70a24669e8" y="180.772589"/>
    </g>
   </g>
   <g id="matplotlib.axis_1">
    <g id="xtick_1">
     <g id="line2d_1">
      <defs>
       <path d="M 0 0 
L 0 3.5 
" id="mb47b2109d6" style="stroke:#000000;stroke-width:0.8;"/>
      </defs>
      <g>
       <use style="stroke:#000000;stroke-width:0.8;" x="73.832727" xlink:href="#mb47b2109d6" y="307.584"/>
      </g>
     </g>
     <g id="text_1">
      <!-- 1970 -->
      <g transform="translate(61.107727 322.182437)scale(0.1 -0.1)">
       <defs>
        <path d="M 12.40625 8.296875 
L 28.515625 8.296875 
L 28.515625 63.921875 
L 10.984375 60.40625 
L 10.984375 69.390625 
L 28.421875 72.90625 
L 38.28125 72.90625 
L 38.28125 8.296875 
L 54.390625 8.296875 
L 54.390625 0 
L 12.40625 0 
z
" id="DejaVuSans-49"/>
        <path d="M 10.984375 1.515625 
L 10.984375 10.5 
Q 14.703125 8.734375 18.5 7.8125 
Q 22.3125 6.890625 25.984375 6.890625 
Q 35.75 6.890625 40.890625 13.453125 
Q 46.046875 20.015625 46.78125 33.40625 
Q 43.953125 29.203125 39.59375 26.953125 
Q 35.25 24.703125 29.984375 24.703125 
Q 19.046875 24.703125 12.671875 31.3125 
Q 6.296875 37.9375 6.296875 49.421875 
Q 6.296875 60.640625 12.9375 67.421875 
Q 19.578125 74.21875 30.609375 74.21875 
Q 43.265625 74.21875 49.921875 64.515625 
Q 56.59375 54.828125 56.59375 36.375 
Q 56.59375 19.140625 48.40625 8.859375 
Q 40.234375 -1.421875 26.421875 -1.421875 
Q 22.703125 -1.421875 18.890625 -0.6875 
Q 15.09375 0.046875 10.984375 1.515625 
z
M 30.609375 32.421875 
Q 37.25 32.421875 41.125 36.953125 
Q 45.015625 41.5 45.015625 49.421875 
Q 45.015625 57.28125 41.125 61.84375 
Q 37.25 66.40625 30.609375 66.40625 
Q 23.96875 66.40625 20.09375 61.84375 
Q 16.21875 57.28125 16.21875 49.421875 
Q 16.21875 41.5 20.09375 36.953125 
Q 23.96875 32.421875 30.609375 32.421875 
z
" id="DejaVuSans-57"/>
        <path d="M 8.203125 72.90625 
L 55.078125 72.90625 
L 55.078125 68.703125 
L 28.609375 0 
L 18.3125 0 
L 43.21875 64.59375 
L 8.203125 64.59375 
z
" id="DejaVuSans-55"/>
        <path d="M 31.78125 66.40625 
Q 24.171875 66.40625 20.328125 58.90625 
Q 16.5 51.421875 16.5 36.375 
Q 16.5 21.390625 20.328125 13.890625 
Q 24.171875 6.390625 31.78125 6.390625 
Q 39.453125 6.390625 43.28125 13.890625 
Q 47.125 21.390625 47.125 36.375 
Q 47.125 51.421875 43.28125 58.90625 
Q 39.453125 66.40625 31.78125 66.40625 
z
M 31.78125 74.21875 
Q 44.046875 74.21875 50.515625 64.515625 
Q 56.984375 54.828125 56.984375 36.375 
Q 56.984375 17.96875 50.515625 8.265625 
Q 44.046875 -1.421875 31.78125 -1.421875 
Q 19.53125 -1.421875 13.0625 8.265625 
Q 6.59375 17.96875 6.59375 36.375 
Q 6.59375 54.828125 13.0625 64.515625 
Q 19.53125 74.21875 31.78125 74.21875 
z
" id="DejaVuSans-48"/>
       </defs>
       <use xlink:href="#DejaVuSans-49"/>
       <use x="63.623047" xlink:href="#DejaVuSans-57"/>
       <use x="127.246094" xlink:href="#DejaVuSans-55"/>
       <use x="190.869141" xlink:href="#DejaVuSans-48"/>
      </g>
     </g>
    </g>
    <g id="xtick_2">
     <g id="line2d_2">
      <g>
       <use style="stroke:#000000;stroke-width:0.8;" x="137.180437" xlink:href="#mb47b2109d6" y="307.584"/>
      </g>
     </g>
     <g id="text_2">
      <!-- 1980 -->
      <g transform="translate(124.455437 322.182437)scale(0.1 -0.1)">
       <defs>
        <path d="M 31.78125 34.625 
Q 24.75 34.625 20.71875 30.859375 
Q 16.703125 27.09375 16.703125 20.515625 
Q 16.703125 13.921875 20.71875 10.15625 
Q 24.75 6.390625 31.78125 6.390625 
Q 38.8125 6.390625 42.859375 10.171875 
Q 46.921875 13.96875 46.921875 20.515625 
Q 46.921875 27.09375 42.890625 30.859375 
Q 38.875 34.625 31.78125 34.625 
z
M 21.921875 38.8125 
Q 15.578125 40.375 12.03125 44.71875 
Q 8.5 49.078125 8.5 55.328125 
Q 8.5 64.0625 14.71875 69.140625 
Q 20.953125 74.21875 31.78125 74.21875 
Q 42.671875 74.21875 48.875 69.140625 
Q 55.078125 64.0625 55.078125 55.328125 
Q 55.078125 49.078125 51.53125 44.71875 
Q 48 40.375 41.703125 38.8125 
Q 48.828125 37.15625 52.796875 32.3125 
Q 56.78125 27.484375 56.78125 20.515625 
Q 56.78125 9.90625 50.3125 4.234375 
Q 43.84375 -1.421875 31.78125 -1.421875 
Q 19.734375 -1.421875 13.25 4.234375 
Q 6.78125 9.90625 6.78125 20.515625 
Q 6.78125 27.484375 10.78125 32.3125 
Q 14.796875 37.15625 21.921875 38.8125 
z
M 18.3125 54.390625 
Q 18.3125 48.734375 21.84375 45.5625 
Q 25.390625 42.390625 31.78125 42.390625 
Q 38.140625 42.390625 41.71875 45.5625 
Q 45.3125 48.734375 45.3125 54.390625 
Q 45.3125 60.0625 41.71875 63.234375 
Q 38.140625 66.40625 31.78125 66.40625 
Q 25.390625 66.40625 21.84375 63.234375 
Q 18.3125 60.0625 18.3125 54.390625 
z
" id="DejaVuSans-56"/>
       </defs>
       <use xlink:href="#DejaVuSans-49"/>
       <use x="63.623047" xlink:href="#DejaVuSans-57"/>
       <use x="127.246094" xlink:href="#DejaVuSans-56"/>
       <use x="190.869141" xlink:href="#DejaVuSans-48"/>
      </g>
     </g>
    </g>
    <g id="xtick_3">
     <g id="line2d_3">
      <g>
       <use style="stroke:#000000;stroke-width:0.8;" x="200.545494" xlink:href="#mb47b2109d6" y="307.584"/>
      </g>
     </g>
     <g id="text_3">
      <!-- 1990 -->
      <g transform="translate(187.820494 322.182437)scale(0.1 -0.1)">
       <use xlink:href="#DejaVuSans-49"/>
       <use x="63.623047" xlink:href="#DejaVuSans-57"/>
       <use x="127.246094" xlink:href="#DejaVuSans-57"/>
       <use x="190.869141" xlink:href="#DejaVuSans-48"/>
      </g>
     </g>
    </g>
    <g id="xtick_4">
     <g id="line2d_4">
      <g>
       <use style="stroke:#000000;stroke-width:0.8;" x="263.893204" xlink:href="#mb47b2109d6" y="307.584"/>
      </g>
     </g>
     <g id="text_4">
      <!-- 2000 -->
      <g transform="translate(251.168204 322.182437)scale(0.1 -0.1)">
       <defs>
        <path d="M 19.1875 8.296875 
L 53.609375 8.296875 
L 53.609375 0 
L 7.328125 0 
L 7.328125 8.296875 
Q 12.9375 14.109375 22.625 23.890625 
Q 32.328125 33.6875 34.8125 36.53125 
Q 39.546875 41.84375 41.421875 45.53125 
Q 43.3125 49.21875 43.3125 52.78125 
Q 43.3125 58.59375 39.234375 62.25 
Q 35.15625 65.921875 28.609375 65.921875 
Q 23.96875 65.921875 18.8125 64.3125 
Q 13.671875 62.703125 7.8125 59.421875 
L 7.8125 69.390625 
Q 13.765625 71.78125 18.9375 73 
Q 24.125 74.21875 28.421875 74.21875 
Q 39.75 74.21875 46.484375 68.546875 
Q 53.21875 62.890625 53.21875 53.421875 
Q 53.21875 48.921875 51.53125 44.890625 
Q 49.859375 40.875 45.40625 35.40625 
Q 44.1875 33.984375 37.640625 27.21875 
Q 31.109375 20.453125 19.1875 8.296875 
z
" id="DejaVuSans-50"/>
       </defs>
       <use xlink:href="#DejaVuSans-50"/>
       <use x="63.623047" xlink:href="#DejaVuSans-48"/>
       <use x="127.246094" xlink:href="#DejaVuSans-48"/>
       <use x="190.869141" xlink:href="#DejaVuSans-48"/>
      </g>
     </g>
    </g>
    <g id="xtick_5">
     <g id="line2d_5">
      <g>
       <use style="stroke:#000000;stroke-width:0.8;" x="327.25826" xlink:href="#mb47b2109d6" y="307.584"/>
      </g>
     </g>
     <g id="text_5">
      <!-- 2010 -->
      <g transform="translate(314.53326 322.182437)scale(0.1 -0.1)">
       <use xlink:href="#DejaVuSans-50"/>
       <use x="63.623047" xlink:href="#DejaVuSans-48"/>
       <use x="127.246094" xlink:href="#DejaVuSans-49"/>
       <use x="190.869141" xlink:href="#DejaVuSans-48"/>
      </g>
     </g>
    </g>
    <g id="xtick_6">
     <g id="line2d_6">
      <g>
       <use style="stroke:#000000;stroke-width:0.8;" x="390.60597" xlink:href="#mb47b2109d6" y="307.584"/>
      </g>
     </g>
     <g id="text_6">
      <!-- 2020 -->
      <g transform="translate(377.88097 322.182437)scale(0.1 -0.1)">
       <use xlink:href="#DejaVuSans-50"/>
       <use x="63.623047" xlink:href="#DejaVuSans-48"/>
       <use x="127.246094" xlink:href="#DejaVuSans-50"/>
       <use x="190.869141" xlink:href="#DejaVuSans-48"/>
      </g>
     </g>
    </g>
    <g id="text_7">
     <!-- Indice -->
     <g transform="translate(221.127187 335.860562)scale(0.1 -0.1)">
      <defs>
       <path d="M 9.8125 72.90625 
L 19.671875 72.90625 
L 19.671875 0 
L 9.8125 0 
z
" id="DejaVuSans-73"/>
       <path d="M 54.890625 33.015625 
L 54.890625 0 
L 45.90625 0 
L 45.90625 32.71875 
Q 45.90625 40.484375 42.875 44.328125 
Q 39.84375 48.1875 33.796875 48.1875 
Q 26.515625 48.1875 22.3125 43.546875 
Q 18.109375 38.921875 18.109375 30.90625 
L 18.109375 0 
L 9.078125 0 
L 9.078125 54.6875 
L 18.109375 54.6875 
L 18.109375 46.1875 
Q 21.34375 51.125 25.703125 53.5625 
Q 30.078125 56 35.796875 56 
Q 45.21875 56 50.046875 50.171875 
Q 54.890625 44.34375 54.890625 33.015625 
z
" id="DejaVuSans-110"/>
       <path d="M 45.40625 46.390625 
L 45.40625 75.984375 
L 54.390625 75.984375 
L 54.390625 0 
L 45.40625 0 
L 45.40625 8.203125 
Q 42.578125 3.328125 38.25 0.953125 
Q 33.9375 -1.421875 27.875 -1.421875 
Q 17.96875 -1.421875 11.734375 6.484375 
Q 5.515625 14.40625 5.515625 27.296875 
Q 5.515625 40.1875 11.734375 48.09375 
Q 17.96875 56 27.875 56 
Q 33.9375 56 38.25 53.625 
Q 42.578125 51.265625 45.40625 46.390625 
z
M 14.796875 27.296875 
Q 14.796875 17.390625 18.875 11.75 
Q 22.953125 6.109375 30.078125 6.109375 
Q 37.203125 6.109375 41.296875 11.75 
Q 45.40625 17.390625 45.40625 27.296875 
Q 45.40625 37.203125 41.296875 42.84375 
Q 37.203125 48.484375 30.078125 48.484375 
Q 22.953125 48.484375 18.875 42.84375 
Q 14.796875 37.203125 14.796875 27.296875 
z
" id="DejaVuSans-100"/>
       <path d="M 9.421875 54.6875 
L 18.40625 54.6875 
L 18.40625 0 
L 9.421875 0 
z
M 9.421875 75.984375 
L 18.40625 75.984375 
L 18.40625 64.59375 
L 9.421875 64.59375 
z
" id="DejaVuSans-105"/>
       <path d="M 48.78125 52.59375 
L 48.78125 44.1875 
Q 44.96875 46.296875 41.140625 47.34375 
Q 37.3125 48.390625 33.40625 48.390625 
Q 24.65625 48.390625 19.8125 42.84375 
Q 14.984375 37.3125 14.984375 27.296875 
Q 14.984375 17.28125 19.8125 11.734375 
Q 24.65625 6.203125 33.40625 6.203125 
Q 37.3125 6.203125 41.140625 7.25 
Q 44.96875 8.296875 48.78125 10.40625 
L 48.78125 2.09375 
Q 45.015625 0.34375 40.984375 -0.53125 
Q 36.96875 -1.421875 32.421875 -1.421875 
Q 20.0625 -1.421875 12.78125 6.34375 
Q 5.515625 14.109375 5.515625 27.296875 
Q 5.515625 40.671875 12.859375 48.328125 
Q 20.21875 56 33.015625 56 
Q 37.15625 56 41.109375 55.140625 
Q 45.0625 54.296875 48.78125 52.59375 
z
" id="DejaVuSans-99"/>
       <path d="M 56.203125 29.59375 
L 56.203125 25.203125 
L 14.890625 25.203125 
Q 15.484375 15.921875 20.484375 11.0625 
Q 25.484375 6.203125 34.421875 6.203125 
Q 39.59375 6.203125 44.453125 7.46875 
Q 49.3125 8.734375 54.109375 11.28125 
L 54.109375 2.78125 
Q 49.265625 0.734375 44.1875 -0.34375 
Q 39.109375 -1.421875 33.890625 -1.421875 
Q 20.796875 -1.421875 13.15625 6.1875 
Q 5.515625 13.8125 5.515625 26.8125 
Q 5.515625 40.234375 12.765625 48.109375 
Q 20.015625 56 32.328125 56 
Q 43.359375 56 49.78125 48.890625 
Q 56.203125 41.796875 56.203125 29.59375 
z
M 47.21875 32.234375 
Q 47.125 39.59375 43.09375 43.984375 
Q 39.0625 48.390625 32.421875 48.390625 
Q 24.90625 48.390625 20.390625 44.140625 
Q 15.875 39.890625 15.1875 32.171875 
z
" id="DejaVuSans-101"/>
      </defs>
      <use xlink:href="#DejaVuSans-73"/>
      <use x="29.492188" xlink:href="#DejaVuSans-110"/>
      <use x="92.871094" xlink:href="#DejaVuSans-100"/>
      <use x="156.347656" xlink:href="#DejaVuSans-105"/>
      <use x="184.130859" xlink:href="#DejaVuSans-99"/>
      <use x="239.111328" xlink:href="#DejaVuSans-101"/>
     </g>
    </g>
   </g>
   <g id="matplotlib.axis_2">
    <g id="ytick_1">
     <g id="line2d_7">
      <defs>
       <path d="M 0 0 
L -3.5 0 
" id="mdad91259b4" style="stroke:#000000;stroke-width:0.8;"/>
      </defs>
      <g>
       <use style="stroke:#000000;stroke-width:0.8;" x="57.6" xlink:href="#mdad91259b4" y="295.950562"/>
      </g>
     </g>
     <g id="text_8">
      <!-- 0 -->
      <g transform="translate(44.2375 299.749781)scale(0.1 -0.1)">
       <use xlink:href="#DejaVuSans-48"/>
      </g>
     </g>
    </g>
    <g id="ytick_2">
     <g id="line2d_8">
      <g>
       <use style="stroke:#000000;stroke-width:0.8;" x="57.6" xlink:href="#mdad91259b4" y="249.694348"/>
      </g>
     </g>
     <g id="text_9">
      <!-- 100 -->
      <g transform="translate(31.5125 253.493567)scale(0.1 -0.1)">
       <use xlink:href="#DejaVuSans-49"/>
       <use x="63.623047" xlink:href="#DejaVuSans-48"/>
       <use x="127.246094" xlink:href="#DejaVuSans-48"/>
      </g>
     </g>
    </g>
    <g id="ytick_3">
     <g id="line2d_9">
      <g>
       <use style="stroke:#000000;stroke-width:0.8;" x="57.6" xlink:href="#mdad91259b4" y="203.438134"/>
      </g>
     </g>
     <g id="text_10">
      <!-- 200 -->
      <g transform="translate(31.5125 207.237353)scale(0.1 -0.1)">
       <use xlink:href="#DejaVuSans-50"/>
       <use x="63.623047" xlink:href="#DejaVuSans-48"/>
       <use x="127.246094" xlink:href="#DejaVuSans-48"/>
      </g>
     </g>
    </g>
    <g id="ytick_4">
     <g id="line2d_10">
      <g>
       <use style="stroke:#000000;stroke-width:0.8;" x="57.6" xlink:href="#mdad91259b4" y="157.18192"/>
      </g>
     </g>
     <g id="text_11">
      <!-- 300 -->
      <g transform="translate(31.5125 160.981138)scale(0.1 -0.1)">
       <defs>
        <path d="M 40.578125 39.3125 
Q 47.65625 37.796875 51.625 33 
Q 55.609375 28.21875 55.609375 21.1875 
Q 55.609375 10.40625 48.1875 4.484375 
Q 40.765625 -1.421875 27.09375 -1.421875 
Q 22.515625 -1.421875 17.65625 -0.515625 
Q 12.796875 0.390625 7.625 2.203125 
L 7.625 11.71875 
Q 11.71875 9.328125 16.59375 8.109375 
Q 21.484375 6.890625 26.8125 6.890625 
Q 36.078125 6.890625 40.9375 10.546875 
Q 45.796875 14.203125 45.796875 21.1875 
Q 45.796875 27.640625 41.28125 31.265625 
Q 36.765625 34.90625 28.71875 34.90625 
L 20.21875 34.90625 
L 20.21875 43.015625 
L 29.109375 43.015625 
Q 36.375 43.015625 40.234375 45.921875 
Q 44.09375 48.828125 44.09375 54.296875 
Q 44.09375 59.90625 40.109375 62.90625 
Q 36.140625 65.921875 28.71875 65.921875 
Q 24.65625 65.921875 20.015625 65.03125 
Q 15.375 64.15625 9.8125 62.3125 
L 9.8125 71.09375 
Q 15.4375 72.65625 20.34375 73.4375 
Q 25.25 74.21875 29.59375 74.21875 
Q 40.828125 74.21875 47.359375 69.109375 
Q 53.90625 64.015625 53.90625 55.328125 
Q 53.90625 49.265625 50.4375 45.09375 
Q 46.96875 40.921875 40.578125 39.3125 
z
" id="DejaVuSans-51"/>
       </defs>
       <use xlink:href="#DejaVuSans-51"/>
       <use x="63.623047" xlink:href="#DejaVuSans-48"/>
       <use x="127.246094" xlink:href="#DejaVuSans-48"/>
      </g>
     </g>
    </g>
    <g id="ytick_5">
     <g id="line2d_11">
      <g>
       <use style="stroke:#000000;stroke-width:0.8;" x="57.6" xlink:href="#mdad91259b4" y="110.925706"/>
      </g>
     </g>
     <g id="text_12">
      <!-- 400 -->
      <g transform="translate(31.5125 114.724924)scale(0.1 -0.1)">
       <defs>
        <path d="M 37.796875 64.3125 
L 12.890625 25.390625 
L 37.796875 25.390625 
z
M 35.203125 72.90625 
L 47.609375 72.90625 
L 47.609375 25.390625 
L 58.015625 25.390625 
L 58.015625 17.1875 
L 47.609375 17.1875 
L 47.609375 0 
L 37.796875 0 
L 37.796875 17.1875 
L 4.890625 17.1875 
L 4.890625 26.703125 
z
" id="DejaVuSans-52"/>
       </defs>
       <use xlink:href="#DejaVuSans-52"/>
       <use x="63.623047" xlink:href="#DejaVuSans-48"/>
       <use x="127.246094" xlink:href="#DejaVuSans-48"/>
      </g>
     </g>
    </g>
    <g id="ytick_6">
     <g id="line2d_12">
      <g>
       <use style="stroke:#000000;stroke-width:0.8;" x="57.6" xlink:href="#mdad91259b4" y="64.669491"/>
      </g>
     </g>
     <g id="text_13">
      <!-- 500 -->
      <g transform="translate(31.5125 68.46871)scale(0.1 -0.1)">
       <defs>
        <path d="M 10.796875 72.90625 
L 49.515625 72.90625 
L 49.515625 64.59375 
L 19.828125 64.59375 
L 19.828125 46.734375 
Q 21.96875 47.46875 24.109375 47.828125 
Q 26.265625 48.1875 28.421875 48.1875 
Q 40.625 48.1875 47.75 41.5 
Q 54.890625 34.8125 54.890625 23.390625 
Q 54.890625 11.625 47.5625 5.09375 
Q 40.234375 -1.421875 26.90625 -1.421875 
Q 22.3125 -1.421875 17.546875 -0.640625 
Q 12.796875 0.140625 7.71875 1.703125 
L 7.71875 11.625 
Q 12.109375 9.234375 16.796875 8.0625 
Q 21.484375 6.890625 26.703125 6.890625 
Q 35.15625 6.890625 40.078125 11.328125 
Q 45.015625 15.765625 45.015625 23.390625 
Q 45.015625 31 40.078125 35.4375 
Q 35.15625 39.890625 26.703125 39.890625 
Q 22.75 39.890625 18.8125 39.015625 
Q 14.890625 38.140625 10.796875 36.28125 
z
" id="DejaVuSans-53"/>
       </defs>
       <use xlink:href="#DejaVuSans-53"/>
       <use x="63.623047" xlink:href="#DejaVuSans-48"/>
       <use x="127.246094" xlink:href="#DejaVuSans-48"/>
      </g>
     </g>
    </g>
    <g id="text_14">
     <!-- Nombre de vélos -->
     <g transform="translate(25.432812 216.910031)rotate(-90)scale(0.1 -0.1)">
      <defs>
       <path d="M 9.8125 72.90625 
L 23.09375 72.90625 
L 55.421875 11.921875 
L 55.421875 72.90625 
L 64.984375 72.90625 
L 64.984375 0 
L 51.703125 0 
L 19.390625 60.984375 
L 19.390625 0 
L 9.8125 0 
z
" id="DejaVuSans-78"/>
       <path d="M 30.609375 48.390625 
Q 23.390625 48.390625 19.1875 42.75 
Q 14.984375 37.109375 14.984375 27.296875 
Q 14.984375 17.484375 19.15625 11.84375 
Q 23.34375 6.203125 30.609375 6.203125 
Q 37.796875 6.203125 41.984375 11.859375 
Q 46.1875 17.53125 46.1875 27.296875 
Q 46.1875 37.015625 41.984375 42.703125 
Q 37.796875 48.390625 30.609375 48.390625 
z
M 30.609375 56 
Q 42.328125 56 49.015625 48.375 
Q 55.71875 40.765625 55.71875 27.296875 
Q 55.71875 13.875 49.015625 6.21875 
Q 42.328125 -1.421875 30.609375 -1.421875 
Q 18.84375 -1.421875 12.171875 6.21875 
Q 5.515625 13.875 5.515625 27.296875 
Q 5.515625 40.765625 12.171875 48.375 
Q 18.84375 56 30.609375 56 
z
" id="DejaVuSans-111"/>
       <path d="M 52 44.1875 
Q 55.375 50.25 60.0625 53.125 
Q 64.75 56 71.09375 56 
Q 79.640625 56 84.28125 50.015625 
Q 88.921875 44.046875 88.921875 33.015625 
L 88.921875 0 
L 79.890625 0 
L 79.890625 32.71875 
Q 79.890625 40.578125 77.09375 44.375 
Q 74.3125 48.1875 68.609375 48.1875 
Q 61.625 48.1875 57.5625 43.546875 
Q 53.515625 38.921875 53.515625 30.90625 
L 53.515625 0 
L 44.484375 0 
L 44.484375 32.71875 
Q 44.484375 40.625 41.703125 44.40625 
Q 38.921875 48.1875 33.109375 48.1875 
Q 26.21875 48.1875 22.15625 43.53125 
Q 18.109375 38.875 18.109375 30.90625 
L 18.109375 0 
L 9.078125 0 
L 9.078125 54.6875 
L 18.109375 54.6875 
L 18.109375 46.1875 
Q 21.1875 51.21875 25.484375 53.609375 
Q 29.78125 56 35.6875 56 
Q 41.65625 56 45.828125 52.96875 
Q 50 49.953125 52 44.1875 
z
" id="DejaVuSans-109"/>
       <path d="M 48.6875 27.296875 
Q 48.6875 37.203125 44.609375 42.84375 
Q 40.53125 48.484375 33.40625 48.484375 
Q 26.265625 48.484375 22.1875 42.84375 
Q 18.109375 37.203125 18.109375 27.296875 
Q 18.109375 17.390625 22.1875 11.75 
Q 26.265625 6.109375 33.40625 6.109375 
Q 40.53125 6.109375 44.609375 11.75 
Q 48.6875 17.390625 48.6875 27.296875 
z
M 18.109375 46.390625 
Q 20.953125 51.265625 25.265625 53.625 
Q 29.59375 56 35.59375 56 
Q 45.5625 56 51.78125 48.09375 
Q 58.015625 40.1875 58.015625 27.296875 
Q 58.015625 14.40625 51.78125 6.484375 
Q 45.5625 -1.421875 35.59375 -1.421875 
Q 29.59375 -1.421875 25.265625 0.953125 
Q 20.953125 3.328125 18.109375 8.203125 
L 18.109375 0 
L 9.078125 0 
L 9.078125 75.984375 
L 18.109375 75.984375 
z
" id="DejaVuSans-98"/>
       <path d="M 41.109375 46.296875 
Q 39.59375 47.171875 37.8125 47.578125 
Q 36.03125 48 33.890625 48 
Q 26.265625 48 22.1875 43.046875 
Q 18.109375 38.09375 18.109375 28.8125 
L 18.109375 0 
L 9.078125 0 
L 9.078125 54.6875 
L 18.109375 54.6875 
L 18.109375 46.1875 
Q 20.953125 51.171875 25.484375 53.578125 
Q 30.03125 56 36.53125 56 
Q 37.453125 56 38.578125 55.875 
Q 39.703125 55.765625 41.0625 55.515625 
z
" id="DejaVuSans-114"/>
       <path id="DejaVuSans-32"/>
       <path d="M 2.984375 54.6875 
L 12.5 54.6875 
L 29.59375 8.796875 
L 46.6875 54.6875 
L 56.203125 54.6875 
L 35.6875 0 
L 23.484375 0 
z
" id="DejaVuSans-118"/>
       <path d="M 56.203125 29.59375 
L 56.203125 25.203125 
L 14.890625 25.203125 
Q 15.484375 15.921875 20.484375 11.0625 
Q 25.484375 6.203125 34.421875 6.203125 
Q 39.59375 6.203125 44.453125 7.46875 
Q 49.3125 8.734375 54.109375 11.28125 
L 54.109375 2.78125 
Q 49.265625 0.734375 44.1875 -0.34375 
Q 39.109375 -1.421875 33.890625 -1.421875 
Q 20.796875 -1.421875 13.15625 6.1875 
Q 5.515625 13.8125 5.515625 26.8125 
Q 5.515625 40.234375 12.765625 48.109375 
Q 20.015625 56 32.328125 56 
Q 43.359375 56 49.78125 48.890625 
Q 56.203125 41.796875 56.203125 29.59375 
z
M 47.21875 32.234375 
Q 47.125 39.59375 43.09375 43.984375 
Q 39.0625 48.390625 32.421875 48.390625 
Q 24.90625 48.390625 20.390625 44.140625 
Q 15.875 39.890625 15.1875 32.171875 
z
M 38.578125 79.984375 
L 48.296875 79.984375 
L 32.375 61.625 
L 24.90625 61.625 
z
" id="DejaVuSans-233"/>
       <path d="M 9.421875 75.984375 
L 18.40625 75.984375 
L 18.40625 0 
L 9.421875 0 
z
" id="DejaVuSans-108"/>
       <path d="M 44.28125 53.078125 
L 44.28125 44.578125 
Q 40.484375 46.53125 36.375 47.5 
Q 32.28125 48.484375 27.875 48.484375 
Q 21.1875 48.484375 17.84375 46.4375 
Q 14.5 44.390625 14.5 40.28125 
Q 14.5 37.15625 16.890625 35.375 
Q 19.28125 33.59375 26.515625 31.984375 
L 29.59375 31.296875 
Q 39.15625 29.25 43.1875 25.515625 
Q 47.21875 21.78125 47.21875 15.09375 
Q 47.21875 7.46875 41.1875 3.015625 
Q 35.15625 -1.421875 24.609375 -1.421875 
Q 20.21875 -1.421875 15.453125 -0.5625 
Q 10.6875 0.296875 5.421875 2 
L 5.421875 11.28125 
Q 10.40625 8.6875 15.234375 7.390625 
Q 20.0625 6.109375 24.8125 6.109375 
Q 31.15625 6.109375 34.5625 8.28125 
Q 37.984375 10.453125 37.984375 14.40625 
Q 37.984375 18.0625 35.515625 20.015625 
Q 33.0625 21.96875 24.703125 23.78125 
L 21.578125 24.515625 
Q 13.234375 26.265625 9.515625 29.90625 
Q 5.8125 33.546875 5.8125 39.890625 
Q 5.8125 47.609375 11.28125 51.796875 
Q 16.75 56 26.8125 56 
Q 31.78125 56 36.171875 55.265625 
Q 40.578125 54.546875 44.28125 53.078125 
z
" id="DejaVuSans-115"/>
      </defs>
      <use xlink:href="#DejaVuSans-78"/>
      <use x="74.804688" xlink:href="#DejaVuSans-111"/>
      <use x="135.986328" xlink:href="#DejaVuSans-109"/>
      <use x="233.398438" xlink:href="#DejaVuSans-98"/>
      <use x="296.875" xlink:href="#DejaVuSans-114"/>
      <use x="335.738281" xlink:href="#DejaVuSans-101"/>
      <use x="397.261719" xlink:href="#DejaVuSans-32"/>
      <use x="429.048828" xlink:href="#DejaVuSans-100"/>
      <use x="492.525391" xlink:href="#DejaVuSans-101"/>
      <use x="554.048828" xlink:href="#DejaVuSans-32"/>
      <use x="585.835938" xlink:href="#DejaVuSans-118"/>
      <use x="645.015625" xlink:href="#DejaVuSans-233"/>
      <use x="706.539062" xlink:href="#DejaVuSans-108"/>
      <use x="734.322266" xlink:href="#DejaVuSans-111"/>
      <use x="795.503906" xlink:href="#DejaVuSans-115"/>
     </g>
    </g>
   </g>
   <g id="line2d_13">
    <path clip-path="url(#p860cb86da8)" d="M 391.912994 264.903485 
L 392.208069 261.946958 
L 392.31188 261.264683 
L 392.450745 260.582407 
L 392.693758 259.672707 
L 392.916908 258.080731 
L 393.020659 257.398455 
L 393.28227 255.124204 
L 393.404524 254.214504 
L 393.648031 252.167678 
L 393.819431 250.803127 
L 394.115892 248.074025 
L 394.301362 247.164325 
L 394.723364 242.843248 
L 394.857724 242.388397 
L 395.208993 239.659296 
L 395.640801 237.385045 
L 395.816237 236.475344 
L 395.989673 235.565644 
L 396.057298 235.338218 
L 396.36519 234.883368 
L 396.56096 233.746243 
L 396.665855 233.063967 
L 397.689271 226.923489 
L 398.174948 225.558938 
L 398.365778 225.104088 
L 398.487273 223.739537 
L 398.487273 223.739537 
" style="fill:none;stroke:#ff0000;stroke-linecap:square;stroke-width:1.5;"/>
   </g>
   <g id="patch_3">
    <path d="M 57.6 307.584 
L 57.6 41.472 
" style="fill:none;stroke:#000000;stroke-linecap:square;stroke-linejoin:miter;stroke-width:0.8;"/>
   </g>
   <g id="patch_4">
    <path d="M 414.72 307.584 
L 414.72 41.472 
" style="fill:none;stroke:#000000;stroke-linecap:square;stroke-linejoin:miter;stroke-width:0.8;"/>
   </g>
   <g id="patch_5">
    <path d="M 57.6 307.584 
L 414.72 307.584 
" style="fill:none;stroke:#000000;stroke-linecap:square;stroke-linejoin:miter;stroke-width:0.8;"/>
   </g>
   <g id="patch_6">
    <path d="M 57.6 41.472 
L 414.72 41.472 
" style="fill:none;stroke:#000000;stroke-linecap:square;stroke-linejoin:miter;stroke-width:0.8;"/>
   </g>
   <g id="text_15">
    <!-- Nombre de vélos par jour entre minuit et 9h depuis 1 an -->
    <g transform="translate(66.70875 35.472)scale(0.12 -0.12)">
     <defs>
      <path d="M 18.109375 8.203125 
L 18.109375 -20.796875 
L 9.078125 -20.796875 
L 9.078125 54.6875 
L 18.109375 54.6875 
L 18.109375 46.390625 
Q 20.953125 51.265625 25.265625 53.625 
Q 29.59375 56 35.59375 56 
Q 45.5625 56 51.78125 48.09375 
Q 58.015625 40.1875 58.015625 27.296875 
Q 58.015625 14.40625 51.78125 6.484375 
Q 45.5625 -1.421875 35.59375 -1.421875 
Q 29.59375 -1.421875 25.265625 0.953125 
Q 20.953125 3.328125 18.109375 8.203125 
z
M 48.6875 27.296875 
Q 48.6875 37.203125 44.609375 42.84375 
Q 40.53125 48.484375 33.40625 48.484375 
Q 26.265625 48.484375 22.1875 42.84375 
Q 18.109375 37.203125 18.109375 27.296875 
Q 18.109375 17.390625 22.1875 11.75 
Q 26.265625 6.109375 33.40625 6.109375 
Q 40.53125 6.109375 44.609375 11.75 
Q 48.6875 17.390625 48.6875 27.296875 
z
" id="DejaVuSans-112"/>
      <path d="M 34.28125 27.484375 
Q 23.390625 27.484375 19.1875 25 
Q 14.984375 22.515625 14.984375 16.5 
Q 14.984375 11.71875 18.140625 8.90625 
Q 21.296875 6.109375 26.703125 6.109375 
Q 34.1875 6.109375 38.703125 11.40625 
Q 43.21875 16.703125 43.21875 25.484375 
L 43.21875 27.484375 
z
M 52.203125 31.203125 
L 52.203125 0 
L 43.21875 0 
L 43.21875 8.296875 
Q 40.140625 3.328125 35.546875 0.953125 
Q 30.953125 -1.421875 24.3125 -1.421875 
Q 15.921875 -1.421875 10.953125 3.296875 
Q 6 8.015625 6 15.921875 
Q 6 25.140625 12.171875 29.828125 
Q 18.359375 34.515625 30.609375 34.515625 
L 43.21875 34.515625 
L 43.21875 35.40625 
Q 43.21875 41.609375 39.140625 45 
Q 35.0625 48.390625 27.6875 48.390625 
Q 23 48.390625 18.546875 47.265625 
Q 14.109375 46.140625 10.015625 43.890625 
L 10.015625 52.203125 
Q 14.9375 54.109375 19.578125 55.046875 
Q 24.21875 56 28.609375 56 
Q 40.484375 56 46.34375 49.84375 
Q 52.203125 43.703125 52.203125 31.203125 
z
" id="DejaVuSans-97"/>
      <path d="M 9.421875 54.6875 
L 18.40625 54.6875 
L 18.40625 -0.984375 
Q 18.40625 -11.421875 14.421875 -16.109375 
Q 10.453125 -20.796875 1.609375 -20.796875 
L -1.8125 -20.796875 
L -1.8125 -13.1875 
L 0.59375 -13.1875 
Q 5.71875 -13.1875 7.5625 -10.8125 
Q 9.421875 -8.453125 9.421875 -0.984375 
z
M 9.421875 75.984375 
L 18.40625 75.984375 
L 18.40625 64.59375 
L 9.421875 64.59375 
z
" id="DejaVuSans-106"/>
      <path d="M 8.5 21.578125 
L 8.5 54.6875 
L 17.484375 54.6875 
L 17.484375 21.921875 
Q 17.484375 14.15625 20.5 10.265625 
Q 23.53125 6.390625 29.59375 6.390625 
Q 36.859375 6.390625 41.078125 11.03125 
Q 45.3125 15.671875 45.3125 23.6875 
L 45.3125 54.6875 
L 54.296875 54.6875 
L 54.296875 0 
L 45.3125 0 
L 45.3125 8.40625 
Q 42.046875 3.421875 37.71875 1 
Q 33.40625 -1.421875 27.6875 -1.421875 
Q 18.265625 -1.421875 13.375 4.4375 
Q 8.5 10.296875 8.5 21.578125 
z
M 31.109375 56 
z
" id="DejaVuSans-117"/>
      <path d="M 18.3125 70.21875 
L 18.3125 54.6875 
L 36.8125 54.6875 
L 36.8125 47.703125 
L 18.3125 47.703125 
L 18.3125 18.015625 
Q 18.3125 11.328125 20.140625 9.421875 
Q 21.96875 7.515625 27.59375 7.515625 
L 36.8125 7.515625 
L 36.8125 0 
L 27.59375 0 
Q 17.1875 0 13.234375 3.875 
Q 9.28125 7.765625 9.28125 18.015625 
L 9.28125 47.703125 
L 2.6875 47.703125 
L 2.6875 54.6875 
L 9.28125 54.6875 
L 9.28125 70.21875 
z
" id="DejaVuSans-116"/>
      <path d="M 54.890625 33.015625 
L 54.890625 0 
L 45.90625 0 
L 45.90625 32.71875 
Q 45.90625 40.484375 42.875 44.328125 
Q 39.84375 48.1875 33.796875 48.1875 
Q 26.515625 48.1875 22.3125 43.546875 
Q 18.109375 38.921875 18.109375 30.90625 
L 18.109375 0 
L 9.078125 0 
L 9.078125 75.984375 
L 18.109375 75.984375 
L 18.109375 46.1875 
Q 21.34375 51.125 25.703125 53.5625 
Q 30.078125 56 35.796875 56 
Q 45.21875 56 50.046875 50.171875 
Q 54.890625 44.34375 54.890625 33.015625 
z
" id="DejaVuSans-104"/>
     </defs>
     <use xlink:href="#DejaVuSans-78"/>
     <use x="74.804688" xlink:href="#DejaVuSans-111"/>
     <use x="135.986328" xlink:href="#DejaVuSans-109"/>
     <use x="233.398438" xlink:href="#DejaVuSans-98"/>
     <use x="296.875" xlink:href="#DejaVuSans-114"/>
     <use x="335.738281" xlink:href="#DejaVuSans-101"/>
     <use x="397.261719" xlink:href="#DejaVuSans-32"/>
     <use x="429.048828" xlink:href="#DejaVuSans-100"/>
     <use x="492.525391" xlink:href="#DejaVuSans-101"/>
     <use x="554.048828" xlink:href="#DejaVuSans-32"/>
     <use x="585.835938" xlink:href="#DejaVuSans-118"/>
     <use x="645.015625" xlink:href="#DejaVuSans-233"/>
     <use x="706.539062" xlink:href="#DejaVuSans-108"/>
     <use x="734.322266" xlink:href="#DejaVuSans-111"/>
     <use x="795.503906" xlink:href="#DejaVuSans-115"/>
     <use x="847.603516" xlink:href="#DejaVuSans-32"/>
     <use x="879.390625" xlink:href="#DejaVuSans-112"/>
     <use x="942.867188" xlink:href="#DejaVuSans-97"/>
     <use x="1004.146484" xlink:href="#DejaVuSans-114"/>
     <use x="1045.259766" xlink:href="#DejaVuSans-32"/>
     <use x="1077.046875" xlink:href="#DejaVuSans-106"/>
     <use x="1104.830078" xlink:href="#DejaVuSans-111"/>
     <use x="1166.011719" xlink:href="#DejaVuSans-117"/>
     <use x="1229.390625" xlink:href="#DejaVuSans-114"/>
     <use x="1270.503906" xlink:href="#DejaVuSans-32"/>
     <use x="1302.291016" xlink:href="#DejaVuSans-101"/>
     <use x="1363.814453" xlink:href="#DejaVuSans-110"/>
     <use x="1427.193359" xlink:href="#DejaVuSans-116"/>
     <use x="1466.402344" xlink:href="#DejaVuSans-114"/>
     <use x="1505.265625" xlink:href="#DejaVuSans-101"/>
     <use x="1566.789062" xlink:href="#DejaVuSans-32"/>
     <use x="1598.576172" xlink:href="#DejaVuSans-109"/>
     <use x="1695.988281" xlink:href="#DejaVuSans-105"/>
     <use x="1723.771484" xlink:href="#DejaVuSans-110"/>
     <use x="1787.150391" xlink:href="#DejaVuSans-117"/>
     <use x="1850.529297" xlink:href="#DejaVuSans-105"/>
     <use x="1878.3125" xlink:href="#DejaVuSans-116"/>
     <use x="1917.521484" xlink:href="#DejaVuSans-32"/>
     <use x="1949.308594" xlink:href="#DejaVuSans-101"/>
     <use x="2010.832031" xlink:href="#DejaVuSans-116"/>
     <use x="2050.041016" xlink:href="#DejaVuSans-32"/>
     <use x="2081.828125" xlink:href="#DejaVuSans-57"/>
     <use x="2145.451172" xlink:href="#DejaVuSans-104"/>
     <use x="2208.830078" xlink:href="#DejaVuSans-32"/>
     <use x="2240.617188" xlink:href="#DejaVuSans-100"/>
     <use x="2304.09375" xlink:href="#DejaVuSans-101"/>
     <use x="2365.617188" xlink:href="#DejaVuSans-112"/>
     <use x="2429.09375" xlink:href="#DejaVuSans-117"/>
     <use x="2492.472656" xlink:href="#DejaVuSans-105"/>
     <use x="2520.255859" xlink:href="#DejaVuSans-115"/>
     <use x="2572.355469" xlink:href="#DejaVuSans-32"/>
     <use x="2604.142578" xlink:href="#DejaVuSans-49"/>
     <use x="2667.765625" xlink:href="#DejaVuSans-32"/>
     <use x="2699.552734" xlink:href="#DejaVuSans-97"/>
     <use x="2760.832031" xlink:href="#DejaVuSans-110"/>
    </g>
   </g>
   <g id="legend_1">
    <g id="patch_7">
     <path d="M 274.22625 79.22825 
L 407.72 79.22825 
Q 409.72 79.22825 409.72 77.22825 
L 409.72 48.472 
Q 409.72 46.472 407.72 46.472 
L 274.22625 46.472 
Q 272.22625 46.472 272.22625 48.472 
L 272.22625 77.22825 
Q 272.22625 79.22825 274.22625 79.22825 
z
" style="fill:#ffffff;opacity:0.8;stroke:#cccccc;stroke-linejoin:miter;"/>
    </g>
    <g id="line2d_14">
     <path d="M 276.22625 54.970438 
L 296.22625 54.970438 
" style="fill:none;stroke:#ff0000;stroke-linecap:square;stroke-width:1.5;"/>
    </g>
    <g id="line2d_15"/>
    <g id="text_16">
     <!-- Droite de régression -->
     <g transform="translate(304.22625 58.470438)scale(0.1 -0.1)">
      <defs>
       <path d="M 19.671875 64.796875 
L 19.671875 8.109375 
L 31.59375 8.109375 
Q 46.6875 8.109375 53.6875 14.9375 
Q 60.6875 21.78125 60.6875 36.53125 
Q 60.6875 51.171875 53.6875 57.984375 
Q 46.6875 64.796875 31.59375 64.796875 
z
M 9.8125 72.90625 
L 30.078125 72.90625 
Q 51.265625 72.90625 61.171875 64.09375 
Q 71.09375 55.28125 71.09375 36.53125 
Q 71.09375 17.671875 61.125 8.828125 
Q 51.171875 0 30.078125 0 
L 9.8125 0 
z
" id="DejaVuSans-68"/>
       <path d="M 45.40625 27.984375 
Q 45.40625 37.75 41.375 43.109375 
Q 37.359375 48.484375 30.078125 48.484375 
Q 22.859375 48.484375 18.828125 43.109375 
Q 14.796875 37.75 14.796875 27.984375 
Q 14.796875 18.265625 18.828125 12.890625 
Q 22.859375 7.515625 30.078125 7.515625 
Q 37.359375 7.515625 41.375 12.890625 
Q 45.40625 18.265625 45.40625 27.984375 
z
M 54.390625 6.78125 
Q 54.390625 -7.171875 48.1875 -13.984375 
Q 42 -20.796875 29.203125 -20.796875 
Q 24.46875 -20.796875 20.265625 -20.09375 
Q 16.0625 -19.390625 12.109375 -17.921875 
L 12.109375 -9.1875 
Q 16.0625 -11.328125 19.921875 -12.34375 
Q 23.78125 -13.375 27.78125 -13.375 
Q 36.625 -13.375 41.015625 -8.765625 
Q 45.40625 -4.15625 45.40625 5.171875 
L 45.40625 9.625 
Q 42.625 4.78125 38.28125 2.390625 
Q 33.9375 0 27.875 0 
Q 17.828125 0 11.671875 7.65625 
Q 5.515625 15.328125 5.515625 27.984375 
Q 5.515625 40.671875 11.671875 48.328125 
Q 17.828125 56 27.875 56 
Q 33.9375 56 38.28125 53.609375 
Q 42.625 51.21875 45.40625 46.390625 
L 45.40625 54.6875 
L 54.390625 54.6875 
z
" id="DejaVuSans-103"/>
      </defs>
      <use xlink:href="#DejaVuSans-68"/>
      <use x="77.001953" xlink:href="#DejaVuSans-114"/>
      <use x="115.865234" xlink:href="#DejaVuSans-111"/>
      <use x="177.046875" xlink:href="#DejaVuSans-105"/>
      <use x="204.830078" xlink:href="#DejaVuSans-116"/>
      <use x="244.039062" xlink:href="#DejaVuSans-101"/>
      <use x="305.5625" xlink:href="#DejaVuSans-32"/>
      <use x="337.349609" xlink:href="#DejaVuSans-100"/>
      <use x="400.826172" xlink:href="#DejaVuSans-101"/>
      <use x="462.349609" xlink:href="#DejaVuSans-32"/>
      <use x="494.136719" xlink:href="#DejaVuSans-114"/>
      <use x="533" xlink:href="#DejaVuSans-233"/>
      <use x="594.523438" xlink:href="#DejaVuSans-103"/>
      <use x="658" xlink:href="#DejaVuSans-114"/>
      <use x="696.863281" xlink:href="#DejaVuSans-101"/>
      <use x="758.386719" xlink:href="#DejaVuSans-115"/>
      <use x="810.486328" xlink:href="#DejaVuSans-115"/>
      <use x="862.585938" xlink:href="#DejaVuSans-105"/>
      <use x="890.369141" xlink:href="#DejaVuSans-111"/>
      <use x="951.550781" xlink:href="#DejaVuSans-110"/>
     </g>
    </g>
    <g id="PathCollection_2">
     <g>
      <use style="fill:#1f77b4;stroke:#1f77b4;" x="286.22625" xlink:href="#m70a24669e8" y="70.523563"/>
     </g>
    </g>
    <g id="text_17">
     <!-- Nombre de vélos -->
     <g transform="translate(304.22625 73.148563)scale(0.1 -0.1)">
      <use xlink:href="#DejaVuSans-78"/>
      <use x="74.804688" xlink:href="#DejaVuSans-111"/>
      <use x="135.986328" xlink:href="#DejaVuSans-109"/>
      <use x="233.398438" xlink:href="#DejaVuSans-98"/>
      <use x="296.875" xlink:href="#DejaVuSans-114"/>
      <use x="335.738281" xlink:href="#DejaVuSans-101"/>
      <use x="397.261719" xlink:href="#DejaVuSans-32"/>
      <use x="429.048828" xlink:href="#DejaVuSans-100"/>
      <use x="492.525391" xlink:href="#DejaVuSans-101"/>
      <use x="554.048828" xlink:href="#DejaVuSans-32"/>
      <use x="585.835938" xlink:href="#DejaVuSans-118"/>
      <use x="645.015625" xlink:href="#DejaVuSans-233"/>
      <use x="706.539062" xlink:href="#DejaVuSans-108"/>
      <use x="734.322266" xlink:href="#DejaVuSans-111"/>
      <use x="795.503906" xlink:href="#DejaVuSans-115"/>
     </g>
    </g>
   </g>
  </g>
 </g>
 <defs>
  <clipPath id="p860cb86da8">
   <rect height="266.112" width="357.12" x="57.6" y="41.472"/>
  </clipPath>
 </defs>
</svg>
